<?xml version="1.0" encoding="UTF-8" standalone="no"?>
<!-- Created with Inkscape (http://www.inkscape.org/) -->
<svg
   xmlns:dc="http://purl.org/dc/elements/1.1/"
   xmlns:cc="http://creativecommons.org/ns#"
   xmlns:rdf="http://www.w3.org/1999/02/22-rdf-syntax-ns#"
   xmlns:svg="http://www.w3.org/2000/svg"
   xmlns="http://www.w3.org/2000/svg"
   xmlns:sodipodi="http://sodipodi.sourceforge.net/DTD/sodipodi-0.dtd"
   xmlns:inkscape="http://www.inkscape.org/namespaces/inkscape"
   id="svg2"
   sodipodi:version="0.32"
   inkscape:version="0.46"
   width="806.9967"
   height="663.39227"
   xml:space="preserve"
   sodipodi:docname="contents.svg"
   version="1.0"
   inkscape:output_extension="org.inkscape.output.svg.inkscape"><metadata
     id="metadata7"><rdf:RDF><cc:Work
         rdf:about=""><dc:format>image/svg+xml</dc:format><dc:type
           rdf:resource="http://purl.org/dc/dcmitype/StillImage" /></cc:Work></rdf:RDF></metadata><defs
     id="defs5"><inkscape:perspective
       sodipodi:type="inkscape:persp3d"
       inkscape:vp_x="0 : 526.18109 : 1"
       inkscape:vp_y="0 : 1000 : 0"
       inkscape:vp_z="744.09448 : 526.18109 : 1"
       inkscape:persp3d-origin="372.04724 : 350.78739 : 1"
       id="perspective9" /></defs><sodipodi:namedview
     inkscape:window-height="846"
     inkscape:window-width="1434"
     inkscape:pageshadow="2"
     inkscape:pageopacity="0.0"
     guidetolerance="10.0"
     gridtolerance="10.0"
     objecttolerance="10.0"
     borderopacity="1.0"
     bordercolor="#666666"
     pagecolor="#ffffff"
     id="base"
     showgrid="false"
     inkscape:zoom="0.66568032"
     inkscape:cx="263.35679"
     inkscape:cy="400.5579"
     inkscape:window-x="0"
     inkscape:window-y="0"
     inkscape:current-layer="g11" /><g
     id="g11"
     inkscape:groupmode="layer"
     inkscape:label="TrackBasedAlignmentNote_v1"
     transform="matrix(1.25,0,0,-1.25,-57.922746,905.32757)"><rect
   transform="scale(1,-1)"
   y="-324.71875"
   x="46.738197"
   height="112.78418"
   width="644.79736"
   id="rect2490"
   style="opacity:1;fill:#fff6d5;fill-opacity:1;fill-rule:evenodd;stroke:#000000;stroke-width:0.80000067;stroke-linecap:butt;stroke-linejoin:miter;marker:none;marker-start:none;marker-mid:none;marker-end:none;stroke-miterlimit:4;stroke-dasharray:none;stroke-dashoffset:0;stroke-opacity:1;visibility:visible;display:inline;overflow:visible;enable-background:accumulate" /><rect
   style="opacity:1;fill:#fff6d5;fill-opacity:1;fill-rule:evenodd;stroke:#000000;stroke-width:0.80000067;stroke-linecap:butt;stroke-linejoin:miter;marker:none;marker-start:none;marker-mid:none;marker-end:none;stroke-miterlimit:4;stroke-dasharray:none;stroke-dashoffset:0;stroke-opacity:1;visibility:visible;display:inline;overflow:visible;enable-background:accumulate"
   id="rect2478"
   width="644.79736"
   height="220.94421"
   x="46.738197"
   y="-701.67877"
   transform="scale(1,-1)" /><text
   transform="matrix(1,0,0,-1,57.827,711.485)"
   id="text13"><tspan
     style="font-size:17.2154007px;font-variant:normal;font-weight:normal;writing-mode:lr-tb;fill:#000000;fill-opacity:1;fill-rule:nonzero;stroke:none;font-family:CMBX12;-inkscape-font-specification:CMBX12"
     x="0 13.987513 23.671175 33.897121 41.42886 50.265526 60.474258 68.005997"
     y="0"
     sodipodi:role="line"
     id="tspan15">Contents</tspan></text>


<text
   transform="matrix(1,0,0,-1,57.827,685.2)"
   id="text17"><tspan
     style="font-size:11.9552002px;font-variant:normal;font-weight:normal;writing-mode:lr-tb;fill:#000000;fill-opacity:1;fill-rule:nonzero;stroke:none;font-family:CMBX12;-inkscape-font-specification:CMBX12"
     x="0 17.556211 22.565439 29.666828 34.897228 40.390644 47.486053 54.958054 62.430054 68.407654 73.638054 77.374054 84.098854 461.27347"
     y="0"
     sodipodi:role="line"
     id="tspan19">1Introduction3</tspan></text>


<text
   transform="matrix(1,0,0,-1,75.386,670.754)"
   id="text21"><tspan
     style="font-size:11.9552002px;font-variant:normal;font-weight:normal;writing-mode:lr-tb;fill:#000000;fill-opacity:1;fill-rule:nonzero;stroke:none;font-family:CMR12;-inkscape-font-specification:CMR12"
     x="0 5.8532658 9.1050806 26.925501 36.110683 41.313583 47.166851 56.922295 62.125198 66.677734 71.230278 81.306122 87.159386 94.633774 99.186317 105.68995 114.8022 124.2229 130.72653 136.57979 146.99277 151.60986 157.78831 162.40541 166.95796 172.16086 188.46774 197.69716 206.92657 216.15599 225.38541 234.61482 243.84424 253.07365 262.30307 271.53247 280.7619 289.9913 299.22073 308.45013 317.67957 326.90897 336.13837 345.3678 354.5972 363.82663 373.05603 382.28546 391.51486 400.74429 409.97369 419.20312 444.58401"
     y="0"
     sodipodi:role="line"
     id="tspan23">1.1Geometryofthemuonsystem..........................4</tspan></text>


<text
   transform="matrix(1,0,0,-1,57.827,644.602)"
   id="text25"><tspan
     style="font-size:11.9552002px;font-variant:normal;font-weight:normal;writing-mode:lr-tb;fill:#000000;fill-opacity:1;fill-rule:nonzero;stroke:none;font-family:CMBX12;-inkscape-font-specification:CMBX12"
     x="0 17.556211 27.865181 34.001785 39.307503 45.285103 50.778515 54.514515 61.986515 67.216919 70.952919 77.677719 89.632919 96.357719 104.94992 110.18032 117.65232 128.27213 134.99692 138.73293 145.45772 152.92972 159.46802 167.68723 174.22552 177.96152 181.69753 188.42232 195.89432 207.10233 213.23892 220.34032 230.05391 236.59221 240.32822 247.05301 253.77782 259.27124 263.00723 268.23764 275.70963 461.27228"
     y="0"
     sodipodi:role="line"
     id="tspan27">2Descriptionoftheglobalalignmentalgorithm6</tspan></text>


<text
   transform="matrix(1,0,0,-1,75.386,630.156)"
   id="text29"><tspan
     style="font-size:11.9552002px;font-variant:normal;font-weight:normal;writing-mode:lr-tb;fill:#000000;fill-opacity:1;fill-rule:nonzero;stroke:none;font-family:CMR12;-inkscape-font-specification:CMR12"
     x="0 5.8532658 9.1050806 26.925501 35.700619 38.952435 42.204247 48.057514 54.561142 64.316582 69.519485 75.700325 84.150261 90.653893 96.507156 101.0597 106.91296 111.53006 116.73296 121.28551 129.8 135.65326 142.15689 152.55792 157.11046 161.66299 167.51627 172.39638 178.57483 182.47701 188.98062 193.53317 198.08571 201.33752 207.84116 217.59181 224.09544 228.64798 234.836 240.03889 245.24181 251.73347 258.23709 262.78964 267.99255 280.76309 289.99249 299.22192 308.45132 317.68076 326.91016 336.13959 345.36899 354.59842 363.82782 373.05722 382.28665 391.51605 400.74548 409.97488 419.20432 444.58521"
     y="0"
     sodipodi:role="line"
     id="tspan31">2.1Alignmentdatasetsandtrack-ﬁttingprocedures................8</tspan><tspan
     style="font-size:11.9552002px;font-variant:normal;font-weight:normal;writing-mode:lr-tb;fill:#000000;fill-opacity:1;fill-rule:nonzero;stroke:none;font-family:CMR12;-inkscape-font-specification:CMR12"
     x="0 5.8532658 9.1050806 26.925501 35.380219 41.233486 44.485298 49.688202 56.19183 59.443645 65.296913 69.849449 73.101265 78.954529 89.355553 95.208824 102.68321 107.30031 113.80394 120.64231 125.83326 130.3858 134.28798 138.84052 144.04343 148.66052 151.91234 158.41597 164.91959 170.77286 174.02467 188.46895 197.69836 206.92778 216.1572 225.3866 234.61601 243.84543 253.07484 262.30426 271.53366 280.76309 289.99249 299.22192 308.45132 317.68076 326.91016 336.13959 345.36899 354.59842 363.82782 373.05722 382.28665 391.51605 400.74548 409.97488 419.20432 444.58521"
     y="14.445"
     sodipodi:role="line"
     id="tspan33">2.2Calculationofsuper-residuals..........................9</tspan><tspan
     style="font-size:11.9552002px;font-variant:normal;font-weight:normal;writing-mode:lr-tb;fill:#000000;fill-opacity:1;fill-rule:nonzero;stroke:none;font-family:CMR12;-inkscape-font-specification:CMR12"
     x="0 5.8532658 9.1050806 26.925501 34.564873 37.816689 42.369228 46.921768 50.173584 56.677212 66.427872 70.980415 77.484039 86.584343 91.201439 97.70507 104.54344 109.74635 114.29888 118.20107 122.7536 127.9565 132.57361 135.82542 142.31709 148.82072 154.67398 157.9258 166.45226 172.95587 176.20769 180.8248 185.37733 189.92987 193.18169 199.68532 206.18895 210.74149 213.9933 219.84656 234.61124 243.84065 253.07007 262.29947 271.5289 280.7583 289.98773 299.21713 308.44656 317.67596 326.90536 336.1348 345.3642 354.59363 363.82303 373.05246 382.28186 391.51129 400.74069 409.97012 419.19952 438.73431 444.58759"
     y="28.891001"
     sodipodi:role="line"
     id="tspan35">2.3Fittingthesuper-residualsdistribution.....................11</tspan><tspan
     style="font-size:11.9552002px;font-variant:normal;font-weight:normal;writing-mode:lr-tb;fill:#000000;fill-opacity:1;fill-rule:nonzero;stroke:none;font-family:CMR12;-inkscape-font-specification:CMR12"
     x="0 5.8532658 9.1050806 26.925501 35.865601 41.068504 45.621044 50.823948 55.376488 65.131927 68.383743 74.887375 78.139191 84.642815 94.393478 100.24674 103.49856 106.75037 112.60364 119.10727 128.86272 134.06561 140.24644 148.69638 155.20001 161.05328 165.60582 171.45909 181.21452 186.41743 190.96997 196.17288 200.72542 209.23991 212.81691 217.36945 223.22272 236.87555 243.37918 247.93172 262.30426 271.53366 280.76309 289.99249 299.22192 308.45132 317.68076 326.91016 336.13959 345.36899 354.59842 363.82782 373.05722 382.28665 391.51605 400.74548 409.97488 419.20432 438.73911 444.59238"
     y="43.337002"
     sodipodi:role="line"
     id="tspan37">2.4Determiningalignmentparametersfromﬁts..................13</tspan><tspan
     style="font-size:11.9552002px;font-variant:normal;font-weight:normal;writing-mode:lr-tb;fill:#000000;fill-opacity:1;fill-rule:nonzero;stroke:none;font-family:CMR12;-inkscape-font-specification:CMR12"
     x="0 5.8532658 9.1050806 26.925501 35.700619 40.903522 46.106422 51.95969 61.715134 67.89119 74.394821 80.248085 84.800621 88.052437 94.556068 104.30673 109.50963 114.06217 118.61472 124.46798 129.02052 137.53502 140.78682 151.1998 160.95525 166.80852 172.66177 179.16541 184.36832 188.92085 192.17267 201.27296 207.7766 212.97949 216.23131 226.63234 232.4856 238.98923 249.40221 259.15765 265.01093 269.56345 274.76636 279.31891 282.57071 288.42398 295.57318 302.07681 308.58044 315.08408 320.93735 326.14026 336.13242 345.36182 354.59122 363.82065 373.05005 382.27948 391.50888 400.73831 409.96771 419.19714 438.73193 444.58521"
     y="57.783001"
     sodipodi:role="line"
     id="tspan39">2.5Accomodatingerrorsinmagneticﬁeldandmaterialbudget..........17</tspan></text>


<text
   transform="matrix(1,0,0,-1,57.827,546.221)"
   id="text41"><tspan
     style="font-size:11.9552002px;font-variant:normal;font-weight:normal;writing-mode:lr-tb;fill:#000000;fill-opacity:1;fill-rule:nonzero;stroke:none;font-family:CMBX12;-inkscape-font-specification:CMBX12"
     x="0 17.556211 30.313604 37.038406 44.510406 48.246407 53.476807 60.201607 65.695023 69.431023 76.903023 88.111023 96.340981 103.44835 110.17315 113.90915 123.69807 130.23636 137.70836 149.66356 158.69571 165.23401 168.97002 172.70601 180.17801 186.71631 191.94672 195.68271 202.40752 209.87952 216.60431 225.63647 231.77307 237.26648 241.00249 248.47449 254.45209 260.99039 266.22079 269.95679 276.68158 454.55106 461.27585"
     y="0"
     sodipodi:role="line"
     id="tspan43">3MonitoringToolsandValidation/Veriﬁcation21</tspan></text>


<text
   transform="matrix(1,0,0,-1,75.386,531.775)"
   id="text45"><tspan
     style="font-size:11.9552002px;font-variant:normal;font-weight:normal;writing-mode:lr-tb;fill:#000000;fill-opacity:1;fill-rule:nonzero;stroke:none;font-family:CMR12;-inkscape-font-specification:CMR12"
     x="0 5.8532658 9.1050806 26.925501 35.380219 41.233486 50.98893 57.492558 63.345821 67.898361 71.150177 75.767273 81.620544 92.021568 97.874832 105.34922 111.20249 116.40539 122.25866 132.0141 137.21701 141.76955 146.32208 149.5739 154.77679 163.30325 166.55507 176.95609 181.50862 188.01225 197.11255 203.61618 209.46945 214.02199 219.87526 226.37889 232.23215 236.84924 253.07484 262.30426 271.53366 280.76309 289.99249 299.22192 308.45132 317.68076 326.91016 336.13959 345.36899 354.59842 363.82782 373.05722 382.28665 391.51605 400.74548 409.97488 419.20432 438.73911 444.59238"
     y="0"
     sodipodi:role="line"
     id="tspan47">3.1Comparisonofgeometriesinthedatabase...................22</tspan><tspan
     style="font-size:11.9552002px;font-variant:normal;font-weight:normal;writing-mode:lr-tb;fill:#000000;fill-opacity:1;fill-rule:nonzero;stroke:none;font-family:CMR12;-inkscape-font-specification:CMR12"
     x="0 5.8532658 9.1050806 26.925501 34.720291 40.573559 43.825371 47.077187 53.580814 59.434082 63.986622 67.238434 73.742065 83.492729 88.045265 93.248169 97.865265 101.11708 107.62071 114.12434 119.97761 123.22942 131.75587 138.25949 142.81204 151.55368 160.7831 170.01251 179.24193 188.47134 197.70074 206.93016 216.15958 225.38899 234.61841 243.84782 253.07724 262.30664 271.53607 280.76547 289.9949 299.2243 308.45374 317.68314 326.91257 336.14197 345.37137 354.6008 363.8302 373.05963 382.28903 391.5065 400.7359 409.96533 419.19473 438.72955 444.58279"
     y="14.445"
     sodipodi:role="line"
     id="tspan49">3.2Validatingresidualsﬁts..............................22</tspan><tspan
     style="font-size:11.9552002px;font-variant:normal;font-weight:normal;writing-mode:lr-tb;fill:#000000;fill-opacity:1;fill-rule:nonzero;stroke:none;font-family:CMR12;-inkscape-font-specification:CMR12"
     x="0 5.8532658 9.1050806 26.925501 37.651707 44.155334 50.008602 60.409626 65.026726 71.20517 75.822273 80.374809 85.577713 99.230553 108.98599 114.83926 121.34289 133.09724 142.32666 151.55608 160.78549 170.01489 179.24431 188.47372 197.70314 206.93256 216.16197 225.39139 234.6208 243.85022 253.07964 262.30905 271.53845 280.76788 289.99728 299.22672 308.44415 317.67358 326.90298 336.13242 345.36182 354.59122 363.82065 373.05005 382.27948 391.50888 400.73831 409.96771 419.19714 438.73193 444.58521"
     y="28.891001"
     sodipodi:role="line"
     id="tspan51">3.3Muonsystemmaps................................23</tspan><tspan
     style="font-size:11.9552002px;font-variant:normal;font-weight:normal;writing-mode:lr-tb;fill:#000000;fill-opacity:1;fill-rule:nonzero;stroke:none;font-family:CMR12;-inkscape-font-specification:CMR12"
     x="0 5.8532658 9.1050806 26.925501 34.720291 39.923195 44.475735 47.727551 54.231178 59.434082 65.287346 69.83989 73.091705 78.944969 89.345993 97.800713 101.05252 105.60506 116.01804 120.57058 125.77348 129.0253 134.87857 139.43111 142.68292 148.52663 157.63887 162.19142 167.39432 172.01141 175.26323 181.76686 188.27049 194.12375 197.37556 206.93016 216.15958 225.38899 234.61841 243.84782 253.07724 262.30664 271.53607 280.76547 289.9949 299.2243 308.45374 317.68314 326.91257 336.14197 345.37137 354.6008 363.8302 373.05963 382.28903 391.5065 400.7359 409.96533 419.19473 438.72955 444.58279"
     y="43.337002"
     sodipodi:role="line"
     id="tspan53">3.4Veriﬁcationwithrelativeresiduals........................26</tspan></text>


<text
   transform="matrix(1,0,0,-1,57.827,462.286)"
   id="text55"><tspan
     style="font-size:11.9552002px;font-variant:normal;font-weight:normal;writing-mode:lr-tb;fill:#000000;fill-opacity:1;fill-rule:nonzero;stroke:none;font-family:CMBX12;-inkscape-font-specification:CMBX12"
     x="0 17.556211 28.128195 31.864195 38.588993 46.060993 52.599293 60.818493 67.356789 71.092789 74.828789 81.553589 89.025589 100.23359 106.37019 113.47159 123.18519 128.6786 134.8152 140.12093 147.59293 151.32892 156.55933 166.34824 176.06184 179.79784 185.02824 196.98344 202.96104 209.68584 213.42184 217.15784 220.89384 226.19955 229.93556 236.66035 244.13235 253.92128 266.67868 273.40347 280.50485 285.73526 296.35507 306.06866 312.60696 318.10037 321.83636 454.55704 461.28183"
     y="0"
     sodipodi:role="line"
     id="tspan57">4GlobalalignmentresultswithcollisionsMonteCarlo28</tspan></text>


<text
   transform="matrix(1,0,0,-1,75.386,447.84)"
   id="text59"><tspan
     style="font-size:11.9552002px;font-variant:normal;font-weight:normal;writing-mode:lr-tb;fill:#000000;fill-opacity:1;fill-rule:nonzero;stroke:none;font-family:CMR12;-inkscape-font-specification:CMR12"
     x="0 5.8532658 9.1050806 26.925501 33.429131 38.632034 44.485298 47.737114 50.98893 57.492558 67.243217 75.697937 78.949753 83.502289 93.903313 98.520409 103.07295 108.92622 113.47876 116.73058 121.34767 125.90021 129.15202 134.35493 142.31949 151.5489 160.77831 170.00772 179.23714 188.46655 197.69597 206.92538 216.1548 225.38422 234.61363 243.84305 253.07245 262.30188 271.53128 280.76071 289.99011 299.21951 308.44894 317.67834 326.90778 336.13718 345.36661 354.59601 363.82544 373.05484 382.28427 391.51367 400.74307 409.9725 419.2019 438.73672 444.58997"
     y="0"
     sodipodi:role="line"
     id="tspan61">4.1Scalingwithstatistics...............................28</tspan><tspan
     style="font-size:11.9552002px;font-variant:normal;font-weight:normal;writing-mode:lr-tb;fill:#000000;fill-opacity:1;fill-rule:nonzero;stroke:none;font-family:CMR12;-inkscape-font-specification:CMR12"
     x="0 5.8532658 9.1050806 26.925501 35.865601 41.068504 47.89492 53.097824 59.601456 66.10508 71.307983 77.811615 83.014519 92.114815 97.968079 108.38106 112.9336 117.48615 123.32745 128.20757 134.06322 139.26613 147.71606 157.4715 160.72331 165.34042 171.19368 174.4455 177.69731 183.55058 190.0542 199.80965 205.01256 211.19339 225.38182 234.61124 243.84065 253.07007 262.29947 271.5289 280.7583 289.98773 299.21713 308.44656 317.67596 326.90536 336.1348 345.3642 354.59363 363.82303 373.05246 382.28186 391.51129 400.74069 409.97012 419.19952 438.73431 444.58759"
     y="14.445"
     sodipodi:role="line"
     id="tspan63">4.2Dependenceontrackermisalignment......................28</tspan><tspan
     style="font-size:11.9552002px;font-variant:normal;font-weight:normal;writing-mode:lr-tb;fill:#000000;fill-opacity:1;fill-rule:nonzero;stroke:none;font-family:CMR12;-inkscape-font-specification:CMR12"
     x="0 5.8532658 9.1050806 26.925501 35.865601 41.068504 47.89492 53.097824 59.601456 66.10508 71.307983 77.811615 83.014519 92.114815 97.968079 108.38106 118.13651 123.97781 129.83109 136.33472 141.53761 146.09015 149.34196 158.45422 164.95786 170.16075 173.41257 183.8136 189.01649 193.56903 198.12157 203.97484 208.52737 216.1572 225.3866 234.61601 243.84543 253.07484 262.30426 271.53366 280.76309 289.99249 299.22192 308.45132 317.68076 326.91016 336.13959 345.36899 354.59842 363.82782 373.05722 382.28665 391.51605 400.74548 409.97488 419.20432 438.73911 444.59238"
     y="28.891001"
     sodipodi:role="line"
     id="tspan65">4.3Dependenceonmagneticﬁelderrors.......................28</tspan></text>


<text
   transform="matrix(1,0,0,-1,57.827,392.797)"
   id="text67"><tspan
     style="font-size:11.9552002px;font-variant:normal;font-weight:normal;writing-mode:lr-tb;fill:#000000;fill-opacity:1;fill-rule:nonzero;stroke:none;font-family:CMBX12;-inkscape-font-specification:CMBX12"
     x="0 17.556211 28.128195 31.864195 38.588993 46.060993 52.599293 60.818493 67.356789 71.092789 74.828789 81.553589 89.025589 100.23359 106.37019 113.47159 123.18519 128.6786 134.8152 140.12093 147.59293 151.32892 156.55933 166.34824 176.06184 179.79784 185.02824 196.98344 202.96104 209.68584 214.99156 226.19955 229.93556 240.39636 245.88977 252.05746 263.63965 271.11166 277.64996 282.88037 454.55585 461.28064"
     y="0"
     sodipodi:role="line"
     id="tspan69">5Globalalignmentresultswithcosmicraydata28</tspan></text>


<text
   transform="matrix(1,0,0,-1,75.386,378.351)"
   id="text71"><tspan
     style="font-size:11.9552002px;font-variant:normal;font-weight:normal;writing-mode:lr-tb;fill:#000000;fill-opacity:1;fill-rule:nonzero;stroke:none;font-family:CMR12;-inkscape-font-specification:CMR12"
     x="0 5.8532658 9.1050806 26.925501 34.720291 40.573559 43.825371 47.077187 53.580814 59.434082 63.986622 67.238434 73.091705 83.492729 89.996353 93.248169 99.101433 103.65398 114.6432 123.87261 133.10202 142.31949 151.5489 160.77831 170.00772 179.23714 188.46655 197.69597 206.92538 216.1548 225.38422 234.61363 243.84305 253.07245 262.30188 271.53128 280.76071 289.99011 299.21951 308.44894 317.67834 326.90778 336.13718 345.36661 354.59601 363.82544 373.05484 382.28427 391.51367 400.74307 409.9725 419.2019 438.73672 444.58997"
     y="0"
     sodipodi:role="line"
     id="tspan73">5.1Validationplots..................................28</tspan><tspan
     style="font-size:11.9552002px;font-variant:normal;font-weight:normal;writing-mode:lr-tb;fill:#000000;fill-opacity:1;fill-rule:nonzero;stroke:none;font-family:CMR12;-inkscape-font-specification:CMR12"
     x="0 5.8532658 9.1050806 26.925501 34.720291 39.923195 44.475735 47.727551 54.231178 59.434082 65.287346 69.83989 73.091705 78.944969 89.345993 97.800713 101.05252 105.60506 116.01804 120.57058 125.77348 129.0253 134.87857 139.43111 142.68292 148.52663 157.63887 162.19142 167.39432 172.01141 175.26323 181.76686 188.27049 194.12375 197.37556 206.93016 216.15958 225.38899 234.61841 243.84782 253.07724 262.30664 271.53607 280.76547 289.9949 299.2243 308.45374 317.68314 326.91257 336.14197 345.37137 354.6008 363.8302 373.05963 382.28903 391.51846 400.7359 409.96533 419.19473 438.72955 444.58279"
     y="14.446"
     sodipodi:role="line"
     id="tspan75">5.2Veriﬁcationwithrelativeresiduals........................28</tspan><tspan
     style="font-size:11.9552002px;font-variant:normal;font-weight:normal;writing-mode:lr-tb;fill:#000000;fill-opacity:1;fill-rule:nonzero;stroke:none;font-family:CMR12;-inkscape-font-specification:CMR12"
     x="0 5.8532658 9.1050806 26.925501 34.720291 39.923195 44.475735 47.727551 54.231178 59.434082 65.287346 69.83989 73.091705 78.944969 89.345993 97.800713 101.05252 105.60506 116.01804 120.63514 125.18768 131.04095 137.54457 144.0482 147.95038 153.80365 157.05547 162.90872 169.41235 178.51265 187.94531 194.44894 200.3022 210.70323 216.55649 219.8083 223.06012 228.91339 235.41702 245.17245 250.37537 256.55621 261.10873 271.53607 280.76547 289.9949 299.2243 308.45374 317.68314 326.91257 336.14197 345.37137 354.6008 363.8302 373.05963 382.28903 391.51846 400.7359 409.96533 419.19473 438.72955 444.58279"
     y="28.892"
     sodipodi:role="line"
     id="tspan77">5.3Veriﬁcationwithstand-alonemuonalignments.................28</tspan><tspan
     style="font-size:11.9552002px;font-variant:normal;font-weight:normal;writing-mode:lr-tb;fill:#000000;fill-opacity:1;fill-rule:nonzero;stroke:none;font-family:CMR12;-inkscape-font-specification:CMR12"
     x="0 5.8532658 9.1050806 26.925501 34.720291 39.923195 44.475735 47.727551 54.231178 59.434082 65.287346 69.83989 73.091705 78.944969 89.345993 97.800713 101.05252 105.60506 116.01804 121.22095 127.07421 131.69131 141.44675 144.69856 153.79886 158.35141 162.90395 168.75722 173.63733 183.71317 188.33026 194.83389 198.08571 201.33752 205.89006 210.4426 213.69441 220.19804 234.61124 243.84065 253.07007 262.29947 271.5289 280.7583 289.98773 299.21713 308.44656 317.67596 326.90536 336.1348 345.3642 354.59363 363.82303 373.05246 382.28186 391.51129 400.74069 409.97012 419.19952 438.73431 444.58759"
     y="43.337002"
     sodipodi:role="line"
     id="tspan79">5.4Veriﬁcationwithcosmictracksplitting.....................28</tspan></text>


<text
   transform="matrix(1,0,0,-1,57.827,308.862)"
   id="text81"><tspan
     style="font-size:11.9552002px;font-variant:normal;font-weight:normal;writing-mode:lr-tb;fill:#000000;fill-opacity:1;fill-rule:nonzero;stroke:none;font-family:CMBX12;-inkscape-font-specification:CMBX12"
     x="0 17.556211 27.58782 33.724422 37.460423 43.998722 49.229122 52.965122 59.693508 70.313316 76.851616 80.587616 84.323608 91.048409 98.520409 109.72841 115.86501 122.96641 132.68001 139.4048 147.99701 157.7106 165.1826 174.89621 184.68512 194.39873 198.13472 203.36513 215.32033 219.05632 226.15173 232.12933 238.66763 246.88684 252.11723 257.61066 264.14896 269.75595 276.85495 454.55463 461.27945"
     y="0"
     sodipodi:role="line"
     id="tspan83">6RelativealignmentofCSCswithlocaltracks28</tspan></text>


<text
   transform="matrix(1,0,0,-1,75.386,294.416)"
   id="text85"><tspan
     style="font-size:11.9552002px;font-variant:normal;font-weight:normal;writing-mode:lr-tb;fill:#000000;fill-opacity:1;fill-rule:nonzero;stroke:none;font-family:CMR12;-inkscape-font-specification:CMR12"
     x="0 5.8532658 9.1050806 26.925501 35.865601 41.068504 45.6856 50.888504 55.441044 58.69286 65.196487 69.749031 73.000839 78.854111 89.255135 95.108398 102.58279 107.13533 113.63896 122.75121 131.20593 137.70956 150.06168 159.16675 165.02242 170.22531 174.77785 178.02966 183.88293 190.38657 198.90105 204.75432 208.00613 213.85941 219.71266 224.26521 227.51701 232.06956 238.5732 253.07484 262.30426 271.53366 280.76309 289.99249 299.22192 308.45132 317.68076 326.91016 336.13959 345.36899 354.59842 363.82782 373.05722 382.28665 391.51605 400.74548 409.97488 419.20432 438.73911 444.59238"
     y="0"
     sodipodi:role="line"
     id="tspan87">6.1DescriptionoftheCSCOverlapsalgorithm...................29</tspan><tspan
     style="font-size:11.9552002px;font-variant:normal;font-weight:normal;writing-mode:lr-tb;fill:#000000;fill-opacity:1;fill-rule:nonzero;stroke:none;font-family:CMR12;-inkscape-font-specification:CMR12"
     x="0 5.8532658 9.1050806 26.925501 34.239693 40.415749 45.618652 51.471916 58.621128 67.075844 73.579475 85.943542 91.796806 95.048622 98.300438 104.1537 110.65733 120.41277 125.60372 131.78456 140.24644 146.75008 152.60335 157.15588 163.00916 172.7646 177.95554 182.50809 187.71098 192.26352 206.93495 216.16437 225.38182 234.61124 243.84065 253.07007 262.29947 271.5289 280.7583 289.98773 299.21713 308.44656 317.67596 326.90536 336.1348 345.3642 354.59363 363.82303 373.05246 382.28186 391.51129 400.74069 409.97012 419.19952 438.73431 444.58759"
     y="14.446"
     sodipodi:role="line"
     id="tspan89">6.2LocalCSCalignmentparameters........................31</tspan><tspan
     style="font-size:11.9552002px;font-variant:normal;font-weight:normal;writing-mode:lr-tb;fill:#000000;fill-opacity:1;fill-rule:nonzero;stroke:none;font-family:CMR12;-inkscape-font-specification:CMR12"
     x="0 5.8532658 9.1050806 26.925501 33.429131 40.25555 45.458454 50.661354 53.91317 59.766438 63.01825 66.270065 71.472969 76.675873 87.076897 91.629433 96.181976 99.433792 105.28706 111.14032 116.34322 124.79316 130.64642 137.15005 147.56303 154.06667 159.91992 164.47247 174.22313 178.84023 183.39276 187.94531 193.14821 199.00148 208.75693 225.38899 234.61841 243.84782 253.07724 262.30664 271.53607 280.76547 289.9949 299.2243 308.45374 317.68314 326.91257 336.14197 345.37137 354.6008 363.8302 373.05963 382.28903 391.51846 400.7359 409.96533 419.19473 438.72955 444.58279"
     y="28.892"
     sodipodi:role="line"
     id="tspan91">6.3Specializedtriggeranddatastreams......................32</tspan><tspan
     style="font-size:11.9552002px;font-variant:normal;font-weight:normal;writing-mode:lr-tb;fill:#000000;fill-opacity:1;fill-rule:nonzero;stroke:none;font-family:CMR12;-inkscape-font-specification:CMR12"
     x="0 5.8532658 9.1050806 26.925501 35.540417 40.74332 45.36042 51.864048 55.115864 59.668404 68.182899 71.759895 76.312431 82.165695 95.818535 100.37108 106.8747 115.98696 121.84023 127.69349 133.54675 143.29742 150.6116 159.38673 171.73885 176.29138 182.79501 197.70314 206.93256 216.16197 225.39139 234.6208 243.85022 253.07964 262.30905 271.53845 280.76788 289.99728 299.22672 308.44415 317.67358 326.90298 336.13242 345.36182 354.59122 363.82065 373.05005 382.27948 391.50888 400.73831 409.96771 419.19714 438.73193 444.58521"
     y="43.338001"
     sodipodi:role="line"
     id="tspan93">6.4Resultsfromthe2008LHCrun.........................33</tspan><tspan
     style="font-size:11.9552002px;font-variant:normal;font-weight:normal;writing-mode:lr-tb;fill:#000000;fill-opacity:1;fill-rule:nonzero;stroke:none;font-family:CMR12;-inkscape-font-specification:CMR12"
     x="0 5.8532658 9.1050806 26.925501 34.890057 41.068504 45.621044 50.823948 57.327576 61.944672 65.196487 71.049751 81.450775 86.003319 95.753983 101.60725 104.85906 108.11087 113.96414 124.37712 132.83183 139.33546 151.68758 154.93939 160.46986 166.32553 171.52843 176.08096 188.46895 197.69836 206.92778 216.1572 225.3866 234.61601 243.84543 253.07484 262.30426 271.53366 280.76309 289.99249 299.22192 308.45132 317.68076 326.91016 336.13959 345.36899 354.59842 363.82782 373.05722 382.28665 391.51605 400.74548 409.97488 419.20432 438.73911 444.59238"
     y="57.783001"
     sodipodi:role="line"
     id="tspan95">6.5ExtensiontoalignCSClayers..........................36</tspan><tspan
     style="font-size:11.9552002px;font-variant:normal;font-weight:normal;writing-mode:lr-tb;fill:#000000;fill-opacity:1;fill-rule:nonzero;stroke:none;font-family:CMR12;-inkscape-font-specification:CMR12"
     x="0 5.8532658 9.1050806 26.925501 34.720291 39.923195 44.475735 47.727551 51.304546 57.482994 60.734806 67.238434 77.001053 81.541634 88.045265 97.157516 103.01079 106.2626 112.11587 118.61949 124.47276 131.62196 138.1256 142.67815 148.8542 154.0571 159.25999 165.76363 172.26726 176.81979 185.92009 194.37482 197.62663 202.17917 212.59215 215.84396 222.02002 227.22292 233.07619 240.2254 246.07866 249.33047 252.58229 258.43555 264.93918 274.69464 279.89752 286.07837 299.22672 308.44415 317.67358 326.90298 336.13242 345.36182 354.59122 363.82065 373.05005 382.27948 391.50888 400.73831 409.96771 419.19714 438.73193 444.58521"
     y="72.228996"
     sodipodi:role="line"
     id="tspan97">6.6Verifyingtheglobalprocedurewithlocalalignment..............37</tspan></text>


<text
   transform="matrix(1,0,0,-1,57.827,196.035)"
   id="text99"><tspan
     style="font-size:11.9552002px;font-variant:normal;font-weight:normal;writing-mode:lr-tb;fill:#000000;fill-opacity:1;fill-rule:nonzero;stroke:none;font-family:CMBX12;-inkscape-font-specification:CMBX12"
     x="0 17.556211 27.712154 31.448154 35.184155 41.908955 49.380955 60.588955 66.725555 73.82695 83.54055 90.26535 97.737343 102.96774 106.70374 113.79916 120.52396 132.10616 136.21516 142.93996 152.91656 159.64137 166.36617 173.09097 179.81577 186.54057 193.26537 199.99017 206.71497 454.55225 461.27704"
     y="0"
     sodipodi:role="line"
     id="tspan101">7Alignmentoutlookfor2009–201039</tspan></text>






<text
   xml:space="preserve"
   style="font-size:14.39999962px;font-style:normal;font-variant:normal;font-weight:normal;font-stretch:normal;text-align:center;line-height:125%;writing-mode:lr-tb;text-anchor:middle;fill:#000000;fill-opacity:1;stroke:none;stroke-width:1px;stroke-linecap:butt;stroke-linejoin:miter;stroke-opacity:1;font-family:Bitstream Vera Sans;-inkscape-font-specification:Bitstream Vera Sans"
   x="612.73077"
   y="-588.12244"
   id="text2430"
   sodipodi:linespacing="125%"
   transform="scale(1,-1)"><tspan
     sodipodi:role="line"
     id="tspan2432"
     x="612.73077"
     y="-588.12244">(DONE)</tspan></text>
<text
   transform="scale(1,-1)"
   sodipodi:linespacing="125%"
   id="text2434"
   y="-263.32242"
   x="612.73077"
   style="font-size:14.39999962px;font-style:normal;font-variant:normal;font-weight:normal;font-stretch:normal;text-align:center;line-height:125%;writing-mode:lr-tb;text-anchor:middle;fill:#000000;fill-opacity:1;stroke:none;stroke-width:1px;stroke-linecap:butt;stroke-linejoin:miter;stroke-opacity:1;font-family:Bitstream Vera Sans;-inkscape-font-specification:Bitstream Vera Sans"
   xml:space="preserve"><tspan
     y="-263.32242"
     x="612.73077"
     id="tspan2436"
     sodipodi:role="line">(DONE)</tspan></text>
</g></svg>